<svg width="35" height="36" viewBox="0 0 35 36" fill="none" xmlns="http://www.w3.org/2000/svg">
<path d="M17.5 0C12.7509 0 12.1538 0.0225 10.2878 0.108C8.42188 0.198 7.15094 0.4995 6.0375 0.945C4.86958 1.39684 3.8117 2.10561 2.93781 3.02175C2.04767 3.92107 1.35867 5.00904 0.91875 6.21C0.485625 7.353 0.190313 8.6625 0.105 10.575C0.021875 12.4987 0 13.1108 0 18.0023C0 22.8893 0.021875 23.5013 0.105 25.4205C0.1925 27.3375 0.485625 28.6448 0.91875 29.79C1.36719 30.9735 1.96438 31.977 2.93781 32.9782C3.90906 33.9795 4.88469 34.596 6.03531 35.055C7.15094 35.5005 8.41969 35.8042 10.2834 35.892C12.1516 35.9775 12.7466 36 17.5 36C22.2534 36 22.8463 35.9775 24.7144 35.892C26.5759 35.802 27.8512 35.5005 28.9647 35.055C30.1319 34.6029 31.189 33.8942 32.0622 32.9782C33.0356 31.977 33.6328 30.9735 34.0812 29.79C34.5122 28.6448 34.8075 27.3375 34.895 25.4205C34.9781 23.5013 35 22.8893 35 18C35 13.1108 34.9781 12.4988 34.895 10.5773C34.8075 8.6625 34.5122 7.353 34.0812 6.21C33.6414 5.00901 32.9524 3.92102 32.0622 3.02175C31.1886 2.10527 30.1306 1.39645 28.9625 0.945C27.8469 0.4995 26.5737 0.19575 24.7122 0.108C22.8441 0.0225 22.2512 0 17.4956 0H17.5022H17.5ZM15.9316 3.2445H17.5022C22.1747 3.2445 22.7281 3.26025 24.5722 3.348C26.2784 3.42675 27.2059 3.7215 27.8228 3.96675C28.6388 4.293 29.2228 4.6845 29.8353 5.3145C30.4478 5.9445 30.8263 6.543 31.1434 7.3845C31.3841 8.01675 31.6684 8.97075 31.745 10.7258C31.8303 12.6225 31.8478 13.1918 31.8478 17.9955C31.8478 22.7993 31.8303 23.3708 31.745 25.2675C31.6684 27.0225 31.3819 27.9743 31.1434 28.6088C30.8629 29.3903 30.4151 30.097 29.8331 30.6765C29.2206 31.3065 28.6388 31.6958 27.8206 32.022C27.2081 32.2695 26.2806 32.562 24.5722 32.643C22.7281 32.7285 22.1747 32.7488 17.5022 32.7488C12.8297 32.7488 12.2741 32.7285 10.43 32.643C8.72375 32.562 7.79844 32.2695 7.18156 32.022C6.4214 31.7338 5.73371 31.2741 5.16906 30.6765C4.58664 30.0961 4.13814 29.3887 3.85656 28.6065C3.61812 27.9743 3.33156 27.0203 3.255 25.2653C3.17188 23.3685 3.15437 22.7993 3.15437 17.991C3.15437 13.185 3.17188 12.618 3.255 10.7213C3.33375 8.96625 3.61813 8.01225 3.85875 7.37775C4.17594 6.5385 4.55656 5.93775 5.16906 5.30775C5.78156 4.67775 6.36344 4.2885 7.18156 3.96225C7.79844 3.71475 8.72375 3.42225 10.43 3.34125C12.0444 3.26475 12.67 3.24225 15.9316 3.24V3.2445ZM26.8428 6.2325C26.567 6.2325 26.294 6.28837 26.0392 6.39692C25.7844 6.50547 25.5529 6.66457 25.3579 6.86515C25.1629 7.06572 25.0082 7.30384 24.9027 7.5659C24.7971 7.82797 24.7428 8.10884 24.7428 8.3925C24.7428 8.67616 24.7971 8.95703 24.9027 9.2191C25.0082 9.48116 25.1629 9.71928 25.3579 9.91985C25.5529 10.1204 25.7844 10.2795 26.0392 10.3881C26.294 10.4966 26.567 10.5525 26.8428 10.5525C27.3998 10.5525 27.9339 10.3249 28.3277 9.91985C28.7216 9.51477 28.9428 8.96537 28.9428 8.3925C28.9428 7.81963 28.7216 7.27023 28.3277 6.86515C27.9339 6.46007 27.3998 6.2325 26.8428 6.2325ZM17.5022 8.757C16.3102 8.73787 15.1263 8.96284 14.0196 9.41882C12.9129 9.87479 11.9055 10.5527 11.056 11.413C10.2064 12.2732 9.53173 13.2988 9.07121 14.4298C8.6107 15.5609 8.37353 16.7749 8.37353 18.0011C8.37353 19.2274 8.6107 20.4414 9.07121 21.5724C9.53173 22.7035 10.2064 23.729 11.056 24.5893C11.9055 25.4496 12.9129 26.1275 14.0196 26.5834C15.1263 27.0394 16.3102 27.2644 17.5022 27.2453C19.8615 27.2074 22.1117 26.2168 23.7671 24.4873C25.4226 22.7578 26.3504 20.4281 26.3504 18.0011C26.3504 15.5741 25.4226 13.2444 23.7671 11.5149C22.1117 9.78545 19.8615 8.79486 17.5022 8.757ZM17.5022 11.9993C19.0495 11.9993 20.5334 12.6315 21.6275 13.7568C22.7216 14.8822 23.3363 16.4085 23.3363 18C23.3363 19.5915 22.7216 21.1178 21.6275 22.2432C20.5334 23.3685 19.0495 24.0007 17.5022 24.0007C15.9549 24.0007 14.471 23.3685 13.3769 22.2432C12.2828 21.1178 11.6681 19.5915 11.6681 18C11.6681 16.4085 12.2828 14.8822 13.3769 13.7568C14.471 12.6315 15.9549 11.9993 17.5022 11.9993Z" fill="white"/>
</svg>
